<svg id="Layer_1" data-name="Layer 1" xmlns="http://www.w3.org/2000/svg" viewBox="0 0 558.89 147.16"><defs><style>.cls-1{fill:#231f20;}</style></defs><title>Gallery Media Group</title><path class="cls-1" d="M163.81,305.51v-21.8h-8.69V271.15h19.45v44.62a43.26,43.26,0,0,1-32.12-.37A43.63,43.63,0,0,1,129,306.52a41.51,41.51,0,0,1-9.11-13.15,39.53,39.53,0,0,1-3.33-16.17A40.21,40.21,0,0,1,119.89,261,41.21,41.21,0,0,1,129,247.72a43.37,43.37,0,0,1,13.45-8.85A41.93,41.93,0,0,1,159,235.62a42.39,42.39,0,0,1,15.58,2.85V253a31,31,0,0,0-4.37-2.24,29.94,29.94,0,0,0-22.48,0,28.23,28.23,0,0,0-9.19,6.08,28.67,28.67,0,0,0,9.19,46.86A28.89,28.89,0,0,0,159,305.9,29.48,29.48,0,0,0,163.81,305.51Z" transform="translate(-116.56 -232.42)"/><path class="cls-1" d="M228.74,307.53,224.31,319H210.86l33.3-86.54L277.39,319H263.94l-4.37-11.43ZM233.56,295h21.19l-10.59-27.52Z" transform="translate(-116.56 -232.42)"/><path class="cls-1" d="M313.69,236.18H326.3v69.95h28.64v12.55H313.69Z" transform="translate(-116.56 -232.42)"/><path class="cls-1" d="M391.24,236.18h12.61v69.95h28.64v12.55H391.24Z" transform="translate(-116.56 -232.42)"/><path class="cls-1" d="M468.78,236.18H507v12.55H481.39v30.49H507v12.56H481.39v14.35H507v12.55H468.78Z" transform="translate(-116.56 -232.42)"/><path class="cls-1" d="M576.93,294.13l11.77,24.66H575.25l-8.91-19.11a32.91,32.91,0,0,1-9.53,1.35h-.95v17.65H543.3V235.62h13.51A32.7,32.7,0,0,1,580,291.44,33.14,33.14,0,0,1,576.93,294.13Zm-21.07-5.55h.95a20.29,20.29,0,1,0,0-40.58h-.95Z" transform="translate(-116.56 -232.42)"/><path class="cls-1" d="M617.77,235.78h13.28l15.58,46.86,15.53-46.86h13.28l-21.63,61.6v21.3H639.4v-21.3Z" transform="translate(-116.56 -232.42)"/><path class="cls-1" d="M257.68,359.2a.6.6,0,0,1,.52-.44h.46a.6.6,0,0,1,.5.32l6,14.77h.11l6-14.77a.55.55,0,0,1,.49-.32h.46a.6.6,0,0,1,.52.44l3.56,19.43a.5.5,0,0,1-.53.66H274a.6.6,0,0,1-.55-.41L271.27,366h-.09l-5.2,13.3a.5.5,0,0,1-.49.32H265a.53.53,0,0,1-.5-.32L259.24,366h-.11L257,378.88a.54.54,0,0,1-.51.41h-1.89a.51.51,0,0,1-.54-.66Z" transform="translate(-116.56 -232.42)"/><path class="cls-1" d="M289.28,359.6a.55.55,0,0,1,.55-.55h11.56a.55.55,0,0,1,.55.55v1.62a.55.55,0,0,1-.55.55h-9.13v5.9H300a.57.57,0,0,1,.55.55v1.62a.55.55,0,0,1-.55.55h-7.71v6.21h9.13a.55.55,0,0,1,.55.55v1.59a.55.55,0,0,1-.55.55H289.83a.55.55,0,0,1-.55-.55Z" transform="translate(-116.56 -232.42)"/><path class="cls-1" d="M315,359.6a.54.54,0,0,1,.52-.55h6.65a10.12,10.12,0,1,1,0,20.24H315.5a.54.54,0,0,1-.52-.55Zm6.76,16.94a7.37,7.37,0,0,0,0-14.74h-3.82v14.74Z" transform="translate(-116.56 -232.42)"/><path class="cls-1" d="M345.13,359.6a.57.57,0,0,1,.55-.55h1.9a.57.57,0,0,1,.55.55v19.14a.57.57,0,0,1-.55.55h-1.9a.57.57,0,0,1-.55-.55Z" transform="translate(-116.56 -232.42)"/><path class="cls-1" d="M359.7,378.54l8.87-19.46a.7.7,0,0,1,.49-.32h.29a.66.66,0,0,1,.49.32l8.82,19.46a.51.51,0,0,1-.49.75h-1.82a.68.68,0,0,1-.67-.43l-1.79-4h-9.45c-.58,1.33-1.19,2.63-1.77,4a.71.71,0,0,1-.66.43h-1.82A.51.51,0,0,1,359.7,378.54Zm13.09-6.13-3.55-7.92h-.15l-3.53,7.92Z" transform="translate(-116.56 -232.42)"/><path class="cls-1" d="M414.19,358.76a10.53,10.53,0,0,1,7,2.69.56.56,0,0,1,0,.81c-.43.47-.86.9-1.3,1.36-.23.26-.46.23-.75,0a7.72,7.72,0,0,0-4.91-2,7.5,7.5,0,0,0,0,15,10.3,10.3,0,0,0,4.33-1v-3.24h-2.83a.52.52,0,0,1-.55-.52v-1.68a.53.53,0,0,1,.55-.55H421a.54.54,0,0,1,.52.55c0,2.32,0,4.69,0,7a.75.75,0,0,1-.23.46,14.45,14.45,0,0,1-7.17,1.91,10.41,10.41,0,1,1,0-20.82Z" transform="translate(-116.56 -232.42)"/><path class="cls-1" d="M434.8,359.6a.55.55,0,0,1,.55-.55h7.86a6.24,6.24,0,0,1,6.3,6.19,6.41,6.41,0,0,1-4.28,5.87l4,7.34a.55.55,0,0,1-.49.84h-2.25A.54.54,0,0,1,446,379l-3.84-7.66h-4.37v7.37a.56.56,0,0,1-.54.55h-1.88a.55.55,0,0,1-.55-.55Zm8.18,9.28a3.59,3.59,0,0,0,3.53-3.58,3.54,3.54,0,0,0-3.53-3.44h-5.15v7Z" transform="translate(-116.56 -232.42)"/><path class="cls-1" d="M471.6,358.76a10.41,10.41,0,1,1-10.38,10.44A10.39,10.39,0,0,1,471.6,358.76Zm0,17.93a7.52,7.52,0,1,0-7.49-7.49A7.52,7.52,0,0,0,471.6,376.69Z" transform="translate(-116.56 -232.42)"/><path class="cls-1" d="M494.55,359.6a.57.57,0,0,1,.55-.55H497a.55.55,0,0,1,.55.55v11.94c0,2.89,1.85,5.15,4.79,5.15a4.77,4.77,0,0,0,4.86-5.09v-12a.55.55,0,0,1,.55-.55h1.94a.57.57,0,0,1,.55.55v12.14a7.87,7.87,0,0,1-15.73,0Z" transform="translate(-116.56 -232.42)"/><path class="cls-1" d="M524.3,359.6a.55.55,0,0,1,.55-.55h6.59a6.45,6.45,0,1,1,0,12.9h-4.2v6.79a.57.57,0,0,1-.54.55h-1.88a.55.55,0,0,1-.55-.55Zm7,9.51a3.67,3.67,0,0,0,3.67-3.7,3.56,3.56,0,0,0-3.67-3.47h-4v7.17Z" transform="translate(-116.56 -232.42)"/></svg>