<?xml version="1.0" encoding="utf-8"?>
<!-- Generator: Adobe Illustrator 21.1.0, SVG Export Plug-In . SVG Version: 6.00 Build 0)  -->
<svg version="1.1" id="Layer_1" xmlns="http://www.w3.org/2000/svg" xmlns:xlink="http://www.w3.org/1999/xlink" x="0px" y="0px"
	 viewBox="0 0 310.1 50" style="enable-background:new 0 0 310.1 50;" xml:space="preserve">
<style type="text/css">
	.st0{fill:#FFFFFF;}
</style>
<g>
	<g>
		<path class="st0" d="M14.1,48.9v-1.5h8.6V10H36V2.9H0.6V1.4h36.9v10.1H24.2v37.3H14.1z M0.6,11.5V10h12.4v1.5H0.6z"/>
		<path class="st0" d="M37,1.9V11H24.7h-1v1v36.3h-9.1v-0.5h7.6h1v-1V10.5h12.4h1v-1V3.4v-1h-1H1.1V1.9H37 M12.6,10.5V11H1.1v-0.5
			H12.6 M38,0.9H0.2v2.5h35.4v6.1H22.2v37.3h-8.6v2.5h11.1V12H38V0.9L38,0.9z M13.6,9.5H0.2V12h13.4V9.5L13.6,9.5z"/>
	</g>
	<g>
		<path class="st0" d="M79.5,48.9v-1.5h9.4L78.7,30.1l1-0.2c4.6-1.1,9.5-5,9.5-12.9c0-8.5-5.8-14.1-14.7-14.1h-21V1.4h21
			c9.7,0,16.2,6.2,16.2,15.6c0,9.8-7,13.1-9.1,13.9L81,31.1l10.5,17.8H79.5z M53.5,48.9v-1.5H62V31h7.4v1.5h-5.9v16.3H53.5z
			 M62,23.9V10h11c4.5,0,7.6,2.9,7.6,6.9c0,4.1-3.1,6.9-7.6,6.9H62z M63.5,22.4H73c3.7,0,6.1-2.1,6.1-5.5c0-3.3-2.4-5.5-6.1-5.5
			h-9.5V22.4z"/>
		<path class="st0" d="M74.5,1.9c9.4,0,15.7,6,15.7,15.1c0,9.5-6.7,12.7-8.8,13.4l-1.1,0.4l0.6,1l9.7,16.5H80v-0.5H88h1.7l-0.9-1.5
			l-9.4-15.9l0.3-0.1c4.8-1.1,9.9-5.2,9.9-13.4c0-8.8-6-14.6-15.2-14.6H54V1.9H74.5 M73,10.5c4.3,0,7.1,2.6,7.1,6.4
			c0,3.9-2.9,6.4-7.1,6.4H62.5V10.5H73 M63,22.9h1h9c4,0,6.6-2.4,6.6-5.9c0-3.6-2.7-6-6.6-6h-9h-1v1v9.9V22.9 M69,31.5V32H64h-1v1
			v15.3h-9v-0.5h7.5h1v-1V31.5H69 M74.5,0.9H53v2.5h21.5c8.6,0,14.2,5.3,14.2,13.6c0,7.6-4.7,11.4-9.1,12.4l-1.6,0.4L88,46.9H79v2.5
			h13.4l-10.6-18c4.7-1.7,9.4-6.3,9.4-14.4C91.2,7.4,84.5,0.9,74.5,0.9L74.5,0.9z M73,9.5H61.5v14.9H73c4.8,0,8.1-3.1,8.1-7.4
			C81.2,12.6,77.8,9.5,73,9.5L73,9.5z M64,21.9V12h9c3.4,0,5.6,1.9,5.6,5c0,3-2.2,5-5.6,5H64L64,21.9z M69.9,30.5h-8.4v16.3H53v2.5
			h11V33h5.9V30.5L69.9,30.5z"/>
	</g>
	<g>
		<path class="st0" d="M140.4,48.9v-1.5h9.6L132.9,2.9h-11.2V1.4h12.3l18.3,47.4H140.4z M103.8,48.9v-1.5H114l2.9-7.8h19.7v1.5
			h-18.7l-2.9,7.8H103.8z M119,32.5l8.2-22.7l8.2,22.7H119z M121.1,31h12.2l-6.1-16.8L121.1,31z"/>
		<path class="st0" d="M133.5,1.9l0.1,0.2l17.8,46.3h-10.5v-0.5h8.4h1.4l-0.5-1.4L133.4,3.1l-0.2-0.6h-0.7h-10.4V1.9H133.5
			 M127.2,11.2l7.5,20.7h-15L127.2,11.2 M120.4,31.5h1.4h10.8h1.4l-0.5-1.3l-5.4-14.9l-0.9-2.6l-0.9,2.6l-5.4,14.9L120.4,31.5
			 M136.1,40.1v0.5h-17.8h-0.7l-0.2,0.6l-2.7,7.1h-10.3v-0.5h9.3h0.7l0.2-0.6l2.7-7.1H136.1 M134.2,0.9h-13.1v2.5h11.4l16.7,43.5
			h-9.3v2.5h13L134.5,1.7L134.2,0.9L134.2,0.9z M127.2,8.3L118.3,33h17.9L127.2,8.3L127.2,8.3z M121.8,30.5l5.4-14.9l5.4,14.9H121.8
			L121.8,30.5z M137.1,39.1h-20.6l-2.9,7.8h-10.3v2.5h12l2.9-7.8h18.8V39.1L137.1,39.1z"/>
	</g>
	<g>
		<path class="st0" d="M182.2,49.7c-0.8,0-1.7,0-2.5-0.1l0.2-1.5c0.8,0.1,1.6,0.1,2.3,0.1c7.7,0,13.7-3.3,17.9-9.8l0.3-0.5l-7-3.4
			l-0.2,0.4c-2.4,3.7-6.5,6.1-10.9,6.1c-8.8,0-15.1-6.7-15.1-15.8c0-9.2,6.4-15.8,15.1-15.8c4.3,0,8.5,2.3,10.9,6.1l0.2,0.4l7-3.5
			l-0.3-0.5c-2.8-4.4-8.2-9.7-17.9-9.7c-0.8,0-1.6,0-2.3,0.1l-0.2-1.5c0.8-0.1,1.7-0.1,2.5-0.1c11,0,16.9,6.3,19.9,11.6l0.4,0.7
			l-9.8,4.8l-0.3-0.6c-1.9-3.8-6-6.3-10.2-6.3c-7.9,0-13.6,6-13.6,14.3s5.7,14.3,13.6,14.3c4.2,0,8.2-2.5,10.1-6.3l0.3-0.6l9.8,4.7
			l-0.4,0.7C197.7,45.6,190.8,49.7,182.2,49.7z"/>
		<path class="st0" d="M182.2,1.2c10.7,0,16.5,6.2,19.4,11.3l0.1,0.2l-8.9,4.4l-0.1-0.2c-2-3.9-6.3-6.5-10.6-6.5
			c-8.2,0-14.1,6.2-14.1,14.8S174,40,182.2,40c4.4,0,8.6-2.6,10.6-6.5l0.1-0.2l8.9,4.3l-0.1,0.2c-4.3,7.5-11,11.4-19.4,11.4
			c-0.6,0-1.3,0-1.9-0.1l0.1-0.5c0.6,0,1.3,0.1,1.9,0.1c7.9,0,14-3.4,18.3-10l0.6-0.9l-1-0.5l-6.1-3l-0.8-0.4l-0.5,0.8
			c-2.3,3.6-6.3,5.8-10.5,5.8c-8.5,0-14.6-6.4-14.6-15.3s6.2-15.3,14.6-15.3c4.2,0,8.2,2.2,10.5,5.8l0.5,0.7L194,16l6.2-3l1-0.5
			l-0.6-0.9c-2.9-4.5-8.4-9.9-18.3-9.9c-0.6,0-1.3,0-1.9,0.1l-0.1-0.5C180.9,1.2,181.6,1.2,182.2,1.2 M182.2,0.2c-1,0-2,0.1-3,0.2
			l0.3,2.5c0.9-0.1,1.8-0.1,2.8-0.1c9.3,0,14.5,4.9,17.5,9.5l-6.2,3c-2.5-3.9-6.8-6.3-11.3-6.3c-9.1,0-15.6,6.9-15.6,16.3
			s6.6,16.3,15.6,16.3c4.6,0,8.9-2.4,11.3-6.3l6.1,3c-4.1,6.3-9.9,9.5-17.4,9.5c-0.9,0-1.9,0-2.8-0.1l-0.3,2.5c1,0.1,2,0.2,3,0.2
			c8.8,0,15.8-4.1,20.3-11.9l0.7-1.2l-10.7-5.2l-0.6,1.1c-1.9,3.6-5.7,6-9.7,6c-7.6,0-13.2-5.8-13.2-13.8c0-8,5.5-13.8,13.2-13.8
			c3.9,0,7.8,2.4,9.7,6l0.6,1.1l10.7-5.2l-0.6-1.1C199.4,6.6,193.4,0.2,182.2,0.2L182.2,0.2z"/>
	</g>
	<g>
		<polygon class="st0" points="218.7,48.9 218.7,47.4 250,47.4 250,40.2 227.3,40.2 227.3,28.4 246.2,28.4 246.2,21.2 227.3,21.2 
			227.3,10 250,10 250,2.9 218.7,2.9 218.7,1.4 251.5,1.4 251.5,11.5 228.8,11.5 228.8,19.8 247.7,19.8 247.7,29.8 228.8,29.8 
			228.8,38.8 251.5,38.8 251.5,48.9 		"/>
		<path class="st0" d="M251,1.9V11h-21.7h-1v1v7.2v1h1h17.9v9.1h-17.9h-1v1v7.9v1h1H251v9.1h-31.8v-0.5h30.3h1v-1v-6.1v-1h-1h-21.7
			V28.9h17.9h1v-1v-6.1v-1h-1h-17.9V10.5h21.7h1v-1V3.4v-1h-1h-30.3V1.9H251 M252,0.9h-33.7v2.5h31.3v6.1h-22.7v12.2h18.9v6.1h-18.9
			v12.9h22.7v6.1h-31.3v2.5H252V38.3h-22.7v-7.9h18.9V19.3h-18.9V12H252V0.9L252,0.9z"/>
	</g>
	<g>
		<path class="st0" d="M297.3,48.9v-1.5h9.4l-10.2-17.2l1-0.2c4.6-1.1,9.5-5,9.5-12.9c0-8.5-5.8-14.1-14.7-14.1h-21V1.4h21
			c9.7,0,16.2,6.2,16.2,15.6c0,9.8-7,13.1-9.1,13.9l-0.6,0.2l10.5,17.8H297.3z M271.4,48.9v-1.5h8.5V31h7.4v1.5h-5.9v16.3H271.4z
			 M279.9,23.9V10h11c4.5,0,7.6,2.9,7.6,6.9c0,4.1-3.1,6.9-7.6,6.9H279.9z M281.4,22.4h9.5c3.7,0,6.1-2.1,6.1-5.5
			c0-3.3-2.4-5.5-6.1-5.5h-9.5V22.4z"/>
		<path class="st0" d="M292.3,1.9c9.4,0,15.7,6,15.7,15.1c0,9.5-6.7,12.7-8.8,13.4l-1.1,0.4l0.6,1l9.7,16.5h-10.7v-0.5h8.1h1.7
			l-0.9-1.5l-9.4-15.9l0.3-0.1c4.8-1.1,9.9-5.2,9.9-13.4c0-8.8-6-14.6-15.2-14.6h-20.5V1.9H292.3 M290.9,10.5c4.3,0,7.1,2.6,7.1,6.4
			c0,3.9-2.9,6.4-7.1,6.4h-10.5V10.5H290.9 M280.9,22.9h1h9c4,0,6.6-2.4,6.6-5.9c0-3.6-2.7-6-6.6-6h-9h-1v1v9.9V22.9 M286.8,31.5V32
			h-4.9h-1v1v15.3h-9v-0.5h7.5h1v-1V31.5H286.8 M292.3,0.9h-21.5v2.5h21.5c8.6,0,14.2,5.3,14.2,13.6c0,7.6-4.7,11.4-9.1,12.4
			l-1.6,0.4l10.1,17.1h-9.1v2.5h13.4l-10.6-18c4.7-1.7,9.4-6.3,9.4-14.4C309,7.4,302.3,0.9,292.3,0.9L292.3,0.9z M290.9,9.5h-11.5
			v14.9h11.5c4.8,0,8.1-3.1,8.1-7.4C299,12.6,295.7,9.5,290.9,9.5L290.9,9.5z M281.9,21.9V12h9c3.4,0,5.6,1.9,5.6,5c0,3-2.2,5-5.6,5
			H281.9L281.9,21.9z M287.8,30.5h-8.4v16.3h-8.5v2.5h11V33h5.9V30.5L287.8,30.5z"/>
	</g>
</g>
</svg>
