<svg xmlns="http://www.w3.org/2000/svg" viewBox="0 0 450.74 45.3"><defs><style>.cls-1{fill:#ffffff;}</style></defs><title>VM-logo</title><g id="Layer_2" data-name="Layer 2"><g id="Layer_1-2" data-name="Layer 1"><path class="cls-1" d="M.65.32h9.44a.65.65,0,0,1,.6.42l10.91,29.4a.65.65,0,0,0,1.21,0L33.73.74a.65.65,0,0,1,.6-.42h9.19a.65.65,0,0,1,.6.89L26.59,44.89a.65.65,0,0,1-.6.4h-7.8a.65.65,0,0,1-.6-.4L0,1.2A.65.65,0,0,1,.65.32Z"/><path class="cls-1" d="M55.61,0h8.24a.62.62,0,0,1,.57.38L83,44.11a.62.62,0,0,1-.57.86H73.54a.62.62,0,0,1-.57-.39L69.2,35.35a.62.62,0,0,0-.57-.39h-18a.62.62,0,0,0-.57.39l-3.77,9.24a.62.62,0,0,1-.57.39H37a.62.62,0,0,1-.57-.86L55,.38A.62.62,0,0,1,55.61,0Zm9.57,25.43-5-12.22a.62.62,0,0,0-1.15,0L54,25.43a.62.62,0,0,0,.57.86h10A.62.62,0,0,0,65.18,25.43Z"/><path class="cls-1" d="M91.27,27.21,74.83,1.29a.64.64,0,0,1,.54-1h10a.64.64,0,0,1,.55.31l9.93,16.71a.64.64,0,0,0,1.09,0L107,.63a.64.64,0,0,1,.54-.31h9.65a.64.64,0,0,1,.54,1L101.3,27a.64.64,0,0,0-.1.34v17a.64.64,0,0,1-.64.64H92a.64.64,0,0,1-.64-.64V27.55A.64.64,0,0,0,91.27,27.21Z"/><path class="cls-1" d="M123.85.32H132a.64.64,0,0,1,.51.25L152,26.31a.64.64,0,0,0,1.15-.39V1a.64.64,0,0,1,.64-.64h8.42a.64.64,0,0,1,.64.64V44.34a.64.64,0,0,1-.64.64h-7.4a.64.64,0,0,1-.51-.25L134.05,18.09a.64.64,0,0,0-1.15.39V44.34a.64.64,0,0,1-.64.64h-8.42a.64.64,0,0,1-.64-.64V1A.64.64,0,0,1,123.85.32Z"/><path class="cls-1" d="M171.72.32h32.36a.66.66,0,0,1,.66.66V8.4a.66.66,0,0,1-.66.66h-22.6a.66.66,0,0,0-.66.66v7.74a.66.66,0,0,0,.66.66h19.73a.66.66,0,0,1,.66.66V26.2a.66.66,0,0,1-.66.66H181.48a.66.66,0,0,0-.66.66v8.06a.66.66,0,0,0,.66.66H204.4a.66.66,0,0,1,.66.66v7.42a.66.66,0,0,1-.66.66H171.72a.66.66,0,0,1-.66-.66V1A.66.66,0,0,1,171.72.32Z"/><path class="cls-1" d="M212.53,1a.64.64,0,0,1,.64-.64h19.78c5.68,0,10.08,1.59,13,4.53a14,14,0,0,1,3.83,10.21v.13c0,6.89-3.56,11.33-8.83,13.55a.64.64,0,0,0-.29.95L250.44,44a.64.64,0,0,1-.53,1H240a.64.64,0,0,1-.53-.28L230.26,31a.64.64,0,0,0-.53-.28H223a.64.64,0,0,0-.64.64v13a.64.64,0,0,1-.64.64h-8.55a.64.64,0,0,1-.64-.64ZM232.3,22c4.79,0,7.53-2.55,7.53-6.32v-.13c0-4.21-2.93-6.38-7.72-6.38H223a.64.64,0,0,0-.64.64V21.37A.64.64,0,0,0,223,22Z"/><path class="cls-1" d="M308.67.32h30.48a.64.64,0,0,1,.64.64V2.74a.64.64,0,0,1-.64.64H312a.64.64,0,0,0-.64.64V20.28a.64.64,0,0,0,.64.64h24.3a.64.64,0,0,1,.64.64v1.78a.64.64,0,0,1-.64.64H312a.64.64,0,0,0-.64.64V41.27a.64.64,0,0,0,.64.64h27.49a.64.64,0,0,1,.64.64v1.78a.64.64,0,0,1-.64.64h-30.8a.64.64,0,0,1-.64-.64V1A.64.64,0,0,1,308.67.32Z"/><path class="cls-1" d="M349.78,1a.65.65,0,0,1,.65-.65h14.22c14,0,23.73,9.63,23.73,22.2v.13c0,12.57-9.7,22.33-23.73,22.33H350.42a.65.65,0,0,1-.65-.65Zm14.87,41c12.44,0,20.29-8.49,20.29-19.14v-.13c0-10.59-7.85-19.27-20.29-19.27h-10.9a.65.65,0,0,0-.65.65V41.27a.65.65,0,0,0,.65.65Z"/><path class="cls-1" d="M396.75.32h2a.63.63,0,0,1,.63.63V44.34a.63.63,0,0,1-.63.63h-2a.63.63,0,0,1-.63-.63V1A.63.63,0,0,1,396.75.32Z"/><path class="cls-1" d="M427.54,0h2.36a.65.65,0,0,1,.59.38l20.19,43.67a.65.65,0,0,1-.59.93h-2.2a.65.65,0,0,1-.59-.38L442,32.86a.65.65,0,0,0-.59-.38H415.86a.65.65,0,0,0-.59.38l-5.33,11.74a.65.65,0,0,1-.59.38h-2a.65.65,0,0,1-.59-.93L426.94.38A.65.65,0,0,1,427.54,0ZM440,28.55,429.24,4.94a.65.65,0,0,0-1.19,0L417.27,28.55a.65.65,0,0,0,.59.92h21.51A.65.65,0,0,0,440,28.55Z"/><path class="cls-1" d="M258.3.32h2.14A.65.65,0,0,1,261,.6l17.2,25.34a.65.65,0,0,0,1.07,0L296.44.6A.65.65,0,0,1,297,.32h2.14a.65.65,0,0,1,.65.65V44.33a.65.65,0,0,1-.65.65h-2a.65.65,0,0,1-.65-.65V8.27a.65.65,0,0,0-1.18-.37L280.56,29.3l-1.38,2h-1.07l-1.37-2L262,7.91a.65.65,0,0,0-1.18.37V44.33a.65.65,0,0,1-.65.65h-1.9a.65.65,0,0,1-.65-.65V1A.65.65,0,0,1,258.3.32Z"/><circle class="cls-1" cx="278.64" cy="30.94" r="0.65" transform="translate(18.04 134.31) rotate(-27.97)"/></g></g></svg>
